<?xml version="1.0" encoding="UTF-8" standalone="no"?>
<!-- Created with Inkscape (http://www.inkscape.org/) -->

<svg
   version="1.1"
   id="svg1"
   width="1731.7435"
   height="657.77264"
   viewBox="0 0 1731.7435 657.77264"
   sodipodi:docname="logo.svg"
   inkscape:version="1.4.4 (dcaf3e7d9e, 2026-05-05)"
   xmlns:inkscape="http://www.inkscape.org/namespaces/inkscape"
   xmlns:sodipodi="http://sodipodi.sourceforge.net/DTD/sodipodi-0.dtd"
   xmlns="http://www.w3.org/2000/svg"
   xmlns:svg="http://www.w3.org/2000/svg">
  <defs
     id="defs1" />
  <sodipodi:namedview
     id="namedview1"
     pagecolor="#505050"
     bordercolor="#eeeeee"
     borderopacity="1"
     inkscape:showpageshadow="0"
     inkscape:pageopacity="0"
     inkscape:pagecheckerboard="0"
     inkscape:deskcolor="#505050"
     showgrid="false"
     inkscape:zoom="0.27198422"
     inkscape:cx="1215.144"
     inkscape:cy="746.36684"
     inkscape:window-width="1920"
     inkscape:window-height="1037"
     inkscape:window-x="0"
     inkscape:window-y="0"
     inkscape:window-maximized="1"
     inkscape:current-layer="g1">
    <inkscape:page
       x="7.3870513e-07"
       y="0"
       width="1731.7435"
       height="657.77264"
       id="page1"
       margin="0 0 0"
       bleed="0" />
  </sodipodi:namedview>
  <g
     inkscape:groupmode="layer"
     inkscape:label="Image"
     id="g1"
     transform="translate(-42.256443)">
    <path
       style="fill:#000000;stroke-width:1.13892"
       d="m 296.26929,530.90901 c -43.95453,-4.03523 -91.22648,-25.57777 -122.56489,-55.85457 -20.21308,-19.52833 -31.3091,-34.50485 -43.15281,-58.24419 -27.9153,-55.95283 -28.27935,-115.60699 -1.05574,-173.00134 26.59064,-56.05994 73.82358,-95.42816 133.57166,-111.33073 11.54591,-3.07308 31.3533,-6.17019 39.66922,-6.20276 9.03005,-0.0353 8.90799,-0.47276 8.90799,31.92401 0,32.93215 0.76085,31.00883 -12.77763,32.29999 -18.84126,1.79689 -43.28793,10.93992 -61.3407,22.94139 -29.16682,19.39006 -50.23137,51.49086 -58.69251,89.44306 -2.83731,12.72666 -2.55007,37.09057 0.61653,52.29365 12.53962,60.20384 61.6216,103.72663 124.62568,110.51004 21.85265,2.35274 46.0446,-1.72892 68.0333,-11.47876 12.41339,-5.50412 16.34385,-6.4482 18.70074,-4.49224 2.43027,2.01696 2.54895,65.06354 0.12624,67.07425 -4.52968,3.75931 -34.23485,11.62968 -51.92769,13.75831 -9.07244,1.0915 -32.61159,1.28969 -42.73939,0.35989 z m 129.88433,-17.06354 c -7.8542,-2.1709 -10.86715,-7.49488 -10.86715,-19.20266 0,-10.49185 1.89753,-14.38429 8.59186,-17.62504 4.38142,-2.12097 7.13168,-2.25354 46.72061,-2.25184 47.00787,0 47.35008,0.0539 52.67179,7.97071 2.38092,3.542 2.63727,5.04295 2.30054,13.4698 -0.37199,9.3073 -0.45814,9.55618 -4.63322,13.38234 l -4.25423,3.89869 -40.16366,0.0123 c -22.09004,0.009 -41.95746,0.22609 -44.14991,0.48727 -2.19246,0.26108 -4.98991,0.19734 -6.21663,-0.14175 z m 398.76664,-19.80709 c -73.92054,-6.2013 -130.76137,-55.65723 -147.16054,-128.04108 -2.83054,-12.49376 -3.46513,-43.15723 -1.16658,-56.37654 5.46762,-31.44642 21.08327,-62.04125 43.6844,-85.58839 24.50631,-25.53206 51.6359,-40.26393 89.0753,-48.36951 14.90758,-3.22747 49.84002,-2.98696 66.28836,0.45635 74.73309,15.64477 126.5895,75.00545 131.4628,150.48707 1.742,26.98255 -6.26,60.43239 -20.58473,86.04732 -14.41597,25.77824 -43.13113,52.42661 -70.48416,65.41114 -26.78397,12.71437 -60.17897,18.56892 -91.11485,15.97364 z m 39.67025,-45.9055 c 34.13682,-7.40003 61.46649,-27.87528 77.54207,-58.09403 18.95993,-35.64107 18.95993,-76.22164 0,-111.86271 -18.00062,-33.83752 -49.91019,-55.12167 -89.54819,-59.72982 -37.03176,-4.30519 -77.81989,12.4793 -100.99216,41.5588 -8.48057,10.64238 -18.53602,30.27908 -21.90773,42.78211 -12.26625,45.48641 4.53432,96.84289 40.61651,124.1579 14.61189,11.06147 35.47682,19.77021 54.42729,22.71716 9.10504,1.41593 29.96769,0.61548 39.86221,-1.52941 z m 436.20649,40.23761 c -15.9766,-2.12768 -33.6642,-8.92991 -47.2651,-18.17688 -9.5421,-6.48745 -24.9221,-23.18088 -31.1102,-33.76719 -10.059,-17.20812 -15.5935,-38.33961 -15.5769,-59.47384 0.048,-60.99653 45.2108,-109.51679 104.7584,-112.54562 28.564,-1.45291 55.1364,8.46941 73.1104,27.29998 l 6.5672,6.88024 0.315,-58.92454 c 0.3036,-56.8215 0.3938,-58.98227 2.5257,-60.54063 1.7054,-1.24671 6.6757,-1.61604 21.7476,-1.61604 17.4807,0 19.7353,0.21922 21.4219,2.08279 1.7337,1.91576 1.8848,14.05007 1.8848,151.29984 0,143.11273 -0.085,149.29427 -2.0826,151.10206 -1.7608,1.59342 -4.9855,1.88485 -20.8525,1.88485 -14.3991,0 -19.2843,-0.37587 -20.9804,-1.61432 -1.9264,-1.40686 -2.2602,-3.32509 -2.5962,-14.92025 l -0.3856,-13.30585 -5.7031,6.39884 c -10.7224,12.03024 -26.21,21.17102 -43.4017,25.61569 -10.4889,2.71178 -31.0047,3.83533 -42.3767,2.32087 z m 43.8485,-42.07632 c 29.3525,-9.71031 48.934,-37.51231 48.934,-69.47719 0,-30.7045 -17.9062,-57.01047 -46.2451,-67.93871 -10.4328,-4.02312 -30.2034,-5.03803 -41.4122,-2.12579 -23.961,6.22533 -44.1615,26.38692 -50.8009,50.70288 -1.3712,5.02196 -2.0167,11.43234 -2.0067,19.93115 0.025,21.50481 6.3257,37.14835 20.9176,51.93537 9.6169,9.74559 20.3641,15.82548 33.0289,18.68505 10.212,2.30583 27.8693,1.50113 37.5844,-1.71276 z m 228.3534,41.97514 c -47.9144,-6.08623 -86.5674,-41.22746 -96.9089,-88.10446 -3.0957,-14.03291 -2.6514,-36.72255 0.9926,-50.69503 11.674,-44.76058 46.7437,-76.12803 93.6128,-83.73005 63.4179,-10.28608 121.6049,27.75973 133.9515,87.58476 5.9663,28.90976 -0.054,61.75556 -15.6217,85.23071 -6.8247,10.29109 -20.281,24.00439 -29.8989,30.4698 -23.7627,15.97412 -55.6973,23.10958 -86.1274,19.24427 z m 39.2928,-41.81335 c 10.2183,-3.2883 20.9219,-9.80496 28.4193,-17.30239 21.5613,-21.56136 27.2581,-56.46382 13.7631,-84.32265 -9.0347,-18.651 -23.6532,-31.14723 -43.8907,-37.51874 -11.8539,-3.73207 -28.7333,-3.55515 -41.0012,0.42968 -23.8257,7.73893 -41.4839,26.04413 -47.9568,49.7135 -3.2379,11.84074 -2.7456,31.10591 1.0951,42.85814 3.4706,10.61921 11.7996,24.05413 18.8299,30.37316 15.1587,13.62488 30.8394,19.29278 51.3797,18.57157 8.0159,-0.2814 14.3993,-1.20535 19.3616,-2.80227 z m -553.9083,35.33678 c -1.7248,-1.90594 -1.8848,-10.88077 -1.8848,-105.69176 0,-79.06628 0.3237,-103.93277 1.3666,-104.97576 0.9574,-0.95732 7.2495,-1.36667 21.0056,-1.36667 24.6479,0 23.1846,-1.31693 23.1846,20.86682 v 15.80429 l 5.2132,-6.93509 c 15.1402,-20.14079 34.6706,-29.41915 64.3255,-30.55925 13.4958,-0.51895 15.6826,-0.35082 17.3685,1.33508 1.6599,1.6598 1.9286,4.60656 1.9286,21.1417 0,14.12993 -0.3766,19.45183 -1.4236,20.11554 -0.783,0.49634 -7.3175,0.74418 -14.5213,0.55081 -16.2759,-0.43686 -26.7724,1.72987 -39.0289,8.05675 -12.0043,6.19667 -22.021,16.92615 -27.0264,28.94967 -6.5364,15.70093 -6.794,18.61223 -6.8157,76.99041 -0.02,51.71221 -0.085,53.31007 -2.2977,55.52239 -2.092,2.09203 -3.7964,2.27784 -20.8935,2.27784 -16.5882,0 -18.8211,-0.22685 -20.5007,-2.08277 z M 420.11014,446.949 c -4.2269,-3.87287 -4.25641,-3.96242 -4.59398,-13.95178 -0.28236,-8.35196 0.0322,-10.64777 1.85856,-13.56181 4.4843,-7.15522 5.6226,-7.31191 53.14933,-7.31191 47.6314,0 48.45548,0.1148 52.94186,7.37403 1.74386,2.82156 2.2958,5.68114 2.2958,11.89388 0,9.52602 -1.85554,13.98109 -7.17356,17.22373 -3.45464,2.1064 -6.0258,2.22337 -48.935,2.22744 l -45.28878,0.009 z m -0.40197,-63.1645 -4.4217,-4.42169 v -9.94879 -9.94879 l 4.30406,-4.30407 c 3.81321,-3.8132 5.1447,-4.39162 11.67394,-5.07132 4.05338,-0.42192 24.53903,-0.603 45.52367,-0.40225 35.48599,0.33928 38.41138,0.52055 41.83689,2.59263 5.06129,3.06136 7.13668,8.02772 7.13668,17.07782 0,8.88282 -1.96853,13.44285 -7.17356,16.61646 -3.45501,2.10669 -6.02675,2.22347 -49.05225,2.22744 l -45.40604,0.009 z m -129.98123,-0.6396 c -5.46606,-2.85134 -45.69651,-44.72171 -47.28246,-49.20978 -2.82988,-8.00825 1.82289,-16.35662 10.44235,-18.73659 7.56448,-2.08862 11.14132,0.0804 28.65011,17.37351 l 16.01849,15.82112 35.80238,-35.92465 c 37.88173,-38.01111 39.61841,-39.37324 47.88366,-37.55789 8.18705,1.79815 13.88284,11.40718 11.33607,19.12418 -1.4843,4.49753 -84.50122,87.79223 -89.26414,89.56276 -4.45731,1.65706 -9.88928,1.47607 -13.58646,-0.45266 z m 170.7234,-59.6621 c -1.03675,-1.1455 -1.88495,-3.38467 -1.88495,-4.97591 0,-12.65622 -8.46364,-41.44012 -16.54431,-56.26553 -19.61636,-35.98935 -54.71561,-62.15415 -94.515,-70.45648 -12.2741,-2.56042 -11.94404,-1.64731 -11.94404,-33.04367 0,-25.41407 0.0994,-26.6113 2.46001,-29.61226 2.34866,-2.98583 2.77394,-3.09269 9.39609,-2.36058 19.20037,2.12269 42.754,9.10395 61.7527,18.30339 64.44237,31.20401 108.97685,95.32124 114.89703,165.41989 0.65256,7.72607 0.46259,9.92004 -1.05973,12.24337 l -1.85459,2.83064 h -29.40923 c -27.04466,0 -29.56061,-0.16747 -31.29398,-2.08286 z"
       id="path1" />
  </g>
</svg>
